{
  "accessors": [
    {
      "bufferView": 2,
      "componentType": 5126,
      "count": 8710,
      "max": [
        2.2707176208496094,
        11.330652236938477,
        2.433673858642578
      ],
      "min": [
        -2.8337669372558594,
        3.1796112060546875,
        -2.5776939392089844
      ],
      "type": "VEC3"
    },
    {
      "bufferView": 2,
      "byteOffset": 104520,
      "componentType": 5126,
      "count": 8710,
      "max": [
        0.9999949336051941,
        0.9982335567474365,
        0.9999254941940308
      ],
      "min": [
        -0.999904453754425,
        -0.9992613792419434,
        -0.9997149705886841
      ],
      "type": "VEC3"
    },
    {
      "bufferView": 1,
      "componentType": 5126,
      "count": 8710,
      "max": [
        0.49430227279663086,
        1.0
      ],
      "min": [
        0.0,
        -1.9840010371890114e-16
      ],
      "type": "VEC2"
    },
    {
      "bufferView": 0,
      "componentType": 5125,
      "count": 50688,
      "type": "SCALAR"
    }
  ],
  "asset": {
    "extras": {
      "author": "omarcrespomclain (https://sketchfab.com/omarcrespomclain)",
      "license": "CC-BY-4.0 (http://creativecommons.org/licenses/by/4.0/)",
      "source": "https://sketchfab.com/3d-models/sheet-ghost-52af55e4be584e569d63dcbf253f4e79",
      "title": "Sheet Ghost"
    },
    "generator": "Sketchfab-16.12.0",
    "version": "2.0"
  },
  "bufferViews": [
    {
      "buffer": 0,
      "byteLength": 202752,
      "name": "floatBufferViews",
      "target": 34963
    },
    {
      "buffer": 0,
      "byteLength": 69680,
      "byteOffset": 202752,
      "byteStride": 8,
      "name": "floatBufferViews",
      "target": 34962
    },
    {
      "buffer": 0,
      "byteLength": 209040,
      "byteOffset": 272432,
      "byteStride": 12,
      "name": "floatBufferViews",
      "target": 34962
    }
  ],
  "buffers": [
    {
      "byteLength": 481472,
      "uri": "ghost.bin"
    }
  ],
  "materials": [
    {
      "doubleSided": true,
      "name": "lambert1",
      "pbrMetallicRoughness": {
        "baseColorFactor": [
          0.5,
          0.5,
          0.5,
          1.0
        ],
        "metallicFactor": 0.0,
        "roughnessFactor": 0.6
      }
    }
  ],
  "meshes": [
    {
      "name": "Plane_lambert1_0",
      "primitives": [
        {
          "attributes": {
            "NORMAL": 1,
            "POSITION": 0,
            "TEXCOORD_0": 2
          },
          "indices": 3,
          "material": 0,
          "mode": 4
        }
      ]
    }
  ],
  "nodes": [
    {
      "children": [
        1
      ],
      "matrix": [
        1.0,
        0.0,
        0.0,
        0.0,
        0.0,
        2.220446049250313e-16,
        -1.0,
        0.0,
        0.0,
        1.0,
        2.220446049250313e-16,
        0.0,
        0.0,
        0.0,
        0.0,
        1.0
      ],
      "name": "Sketchfab_model"
    },
    {
      "children": [
        2
      ],
      "matrix": [
        0.009999999776482582,
        0.0,
        0.0,
        0.0,
        0.0,
        0.0,
        0.009999999776482582,
        0.0,
        0.0,
        -0.009999999776482582,
        0.0,
        0.0,
        0.0,
        0.0,
        0.0,
        1.0
      ],
      "name": "58533559015d44b2a0e98f35ad7003d1.fbx"
    },
    {
      "children": [
        3
      ],
      "name": "RootNode"
    },
    {
      "children": [
        4
      ],
      "matrix": [
        0.42931073904037476,
        0.0,
        0.0,
        0.0,
        0.0,
        0.6085597276687622,
        0.0,
        0.0,
        0.0,
        0.0,
        0.42931073904037476,
        0.0,
        -0.0939502865076065,
        0.5540521144866943,
        5.159085750579834,
        1.0
      ],
      "name": "Plane"
    },
    {
      "mesh": 0,
      "name": "Plane_lambert1_0"
    }
  ],
  "scene": 0,
  "scenes": [
    {
      "name": "Sketchfab_Scene",
      "nodes": [
        0
      ]
    }
  ]
}
